# Blender v2.80 (sub 75) OBJ File: ''
# www.blender.org
o Cylinder
v -0.000000 -1.000000 -0.447127
v -0.000000 1.000000 -0.731124
v 0.223564 -1.000000 -0.387224
v 0.365562 1.000000 -0.633172
v 0.387224 -1.000000 -0.223564
v 0.633172 1.000000 -0.365562
v 0.447127 -1.000000 0.000000
v 0.731124 1.000000 0.000000
v 0.387224 -1.000000 0.223564
v 0.633172 1.000000 0.365562
v 0.223564 -1.000000 0.387224
v 0.365562 1.000000 0.633172
v 0.000000 -1.000000 0.447127
v 0.000000 1.000000 0.731125
v -0.223564 -1.000000 0.387224
v -0.365562 1.000000 0.633172
v -0.387224 -1.000000 0.223564
v -0.633172 1.000000 0.365562
v -0.447127 -1.000000 0.000000
v -0.731124 1.000000 0.000000
v -0.387224 -1.000000 -0.223563
v -0.633173 1.000000 -0.365562
v -0.223564 -1.000000 -0.387223
v -0.365563 1.000000 -0.633172
vn 0.2564 -0.1359 -0.9570
vn 0.7005 -0.1359 -0.7005
vn 0.9570 -0.1359 -0.2564
vn 0.9570 -0.1359 0.2564
vn 0.7005 -0.1359 0.7005
vn 0.2564 -0.1359 0.9570
vn -0.2564 -0.1359 0.9570
vn -0.7005 -0.1359 0.7005
vn -0.9570 -0.1359 0.2564
vn -0.9570 -0.1359 -0.2564
vn -0.7005 -0.1359 -0.7005
vn -0.2564 -0.1359 -0.9570
vn 0.0000 -1.0000 0.0000
s off
f 2//1 3//1 1//1
f 4//2 5//2 3//2
f 6//3 7//3 5//3
f 8//4 9//4 7//4
f 10//5 11//5 9//5
f 12//6 13//6 11//6
f 14//7 15//7 13//7
f 16//8 17//8 15//8
f 17//9 20//9 19//9
f 20//10 21//10 19//10
f 22//11 23//11 21//11
f 24//12 1//12 23//12
f 15//13 19//13 23//13
f 2//1 4//1 3//1
f 4//2 6//2 5//2
f 6//3 8//3 7//3
f 8//4 10//4 9//4
f 10//5 12//5 11//5
f 12//6 14//6 13//6
f 14//7 16//7 15//7
f 16//8 18//8 17//8
f 17//9 18//9 20//9
f 20//10 22//10 21//10
f 22//11 24//11 23//11
f 24//12 2//12 1//12
f 23//13 1//13 3//13
f 3//13 5//13 7//13
f 7//13 9//13 11//13
f 11//13 13//13 15//13
f 15//13 17//13 19//13
f 19//13 21//13 23//13
f 23//13 3//13 15//13
f 3//13 7//13 15//13
f 7//13 11//13 15//13
